/* XPM */
static char *_696e35fbf974f7dd0d56ecb9850481cd6DsINRAdRHQJfHf[] = {
/* columns rows colors chars-per-pixel */
"50 50 113 2 ",
"   c #F7A504",
".  c #F9A402",
"X  c #F9AD03",
"o  c #F7A60A",
"O  c #F9A70A",
"+  c #F6A80F",
"@  c #F8A80E",
"#  c #FBB502",
"$  c #FCBC02",
"%  c #FAB509",
"&  c #F6A913",
"*  c #F8AA12",
"=  c #F7AC1A",
"-  c #F9AD1B",
";  c #F9B311",
":  c #F7AF25",
">  c #F8AD20",
",  c #F9B024",
"<  c #F7B435",
"1  c #FAB737",
"2  c #F9BA3A",
"3  c #FFC601",
"4  c #FEC803",
"5  c #FECA0B",
"6  c #FBC413",
"7  c #FECD13",
"8  c #FCCD1C",
"9  c #FED11D",
"0  c #FCCD24",
"q  c #FCCF2A",
"w  c #FED425",
"e  c #FDD52C",
"r  c #FBD331",
"t  c #FFDA36",
"y  c #FFDA3A",
"u  c #F7BA44",
"i  c #F8B941",
"p  c #F9BD4A",
"a  c #F7BF56",
"s  c #F8BF52",
"d  c #FEDD44",
"f  c #FFDE4C",
"g  c #FAC154",
"h  c #FAC35A",
"j  c #FEDF51",
"k  c #FEDE59",
"l  c #FEE057",
"z  c #FEE15A",
"x  c #F7C464",
"c  c #FAC664",
"v  c #F8C96D",
"b  c #FDD464",
"n  c #FEDC63",
"m  c #F7CA70",
"M  c #F9CA71",
"N  c #FBCD79",
"B  c #FEE365",
"V  c #FEE46C",
"C  c #FEE574",
"Z  c #FEE67B",
"A  c #FEE87E",
"S  c gray75",
"D  c #FBD283",
"F  c #FBD58B",
"G  c #FAD793",
"H  c #FFE882",
"J  c #FDE98D",
"K  c #FDEB92",
"L  c #FDED9B",
"P  c #FADCA1",
"I  c #FDEDA2",
"U  c #FDE3AD",
"Y  c #FDEEAB",
"T  c #FEF1A6",
"R  c #FEF0AD",
"E  c #FBE3B4",
"W  c #FBE4B8",
"Q  c #FCE7BD",
"!  c #FEF1B2",
"~  c #FEF2B7",
"^  c #FDF2BA",
"/  c #D5D5D5",
"(  c #FAE7C0",
")  c #FBE9C9",
"_  c #FDEBCA",
"`  c #FBEBCC",
"'  c #FEF5C6",
"]  c #FEF2C9",
"[  c #FEF6CA",
"{  c #FBEFD6",
"}  c #FEF7D0",
"|  c #FEF8D6",
" . c #FDF4D9",
".. c #FCF1DC",
"X. c #FDF2DE",
"o. c #FEF8DC",
"O. c #FCF4E3",
"+. c #FDF5E4",
"@. c #FCF5E6",
"#. c #FEF9E3",
"$. c #FEF7EB",
"%. c #FEFBE8",
"&. c #FFFBE9",
"*. c #FEF8EC",
"=. c #FDF8EF",
"-. c #FEFBF6",
";. c #FEFBF7",
":. c #FFFDF4",
">. c #FEFDF8",
",. c #FEFCFB",
"<. c gray99",
"1. c #FCFDFE",
"2. c white",
/* pixels */
"2.2.2.2.2.2.2.2.2.2.2.2.2.2.2.2.2.2.2.2.2.2.2.2.2.2.2.2.2.2.2.2.2.2.2.2.2.2.2.2.2.2.2.2.2.2.2.2.2.2.",
"2.2.2.2.2.2.2.2.2.2.2.2.2.2.2.2.2.2.2.2.2.2.2.2.2.2.2.2.2.2.2.2.2.2.2.2.2.2.2.2.2.2.2.2.2.2.2.2.2.2.",
"2.2.2.2.2.2.2.2.2.2.2.2.2.2.2.2.2.2.2.2.2.2.2.2.2.2.2.2.2.2.2.2.2.2.2.2.2.2.2.2.2.2.2.2.2.2.2.2.2.2.",
"2.2.2.2.2.2.2.2.2.2.2.2.2.2.2.2.2.2.2.2.2.2.2.2.2.2.2.2.2.2.2.2.2.2.2.2.2.2.2.2.2.2.2.2.2.2.2.2.2.2.",
"2.2.2.2.2.2.2.2.2.2.2.2.2.2.2.2.2.2.2.2.2.2.2.<.<.2.2.2.2.2.2.2.2.2.2.2.2.2.2.2.2.2.2.2.<.<.2.2.2.2.",
"2.<.2.2.2.2.2.2.2.2.2.<.<.2.2.2.2.2.2.2.2.2.<.2.2.2.2.2.2.2.2.2.;.<.2.2.2.2.2.2.2.2.2.<.<.2.2.2.2.2.",
"<.<.2.2.2.2.2.2.2.2.<.<.<.2.2.2.2.2.2.2.2.<.<.2.2.2.2.2.2.2.2.<.2.<.2.2.2.2.2.2.2.2.<.2.2.2.2.2.2.2.",
"2.2.2.2.2.2.2.2.2.2.2.2.2.2.2.2.2.2.2.2.<.2.2.2.2.2.2.2.2.2.2.2.2.2.2.2.2.2.2.2.2.<.<.2.2.2.2.2.2.2.",
"2.2.2.2.2.2.2.2.2.2.2.2.2.2.2.2.2.2.2.2.2.2.2.2.2.2.2.2.2.2.2.2.2.2.2.2.2.2.2.2.2.2.2.2.2.2.2.2.2.2.",
"2.2.2.2.2.2.2.2.2.2.2.2.2.2.2.2.2.2.2.2.2.2.2.2.2.2.2.2.2.2.2.2.2.2.2.2.2.2.2.2.2.2.2.2.2.2.2.2.2.2.",
"2.2.2.2.2.2.2.2.2.2.2.:.L H H H H C n n n n n n n n b c x x c c x c x x { 2.2.2.2.2.2.2.2.2.2.2.2.2.",
"2.2.2.2.2.:.R I I I L L d t t y t w 3 3 3 3 4 3 3 3 $ . . . . . .   . . c F D F F F X.2.2.2.2.2.2.2.",
"2.2.2.2.2.O.j y d C A k t y y y y w 4 3 4 4 3 4 4 4 $ . . . . . . .   . = g h > o O E 2.2.2.2.2.2.2.",
"2.2.2.2.2.#.f A o.;.2.| l y y y y t e 7 4 3 4 3 4 4 # . . . . . . .   + P 2.,...G o E 2.2.2.2.2.2.2.",
"2.2.2.2.2.%.j K 2.2.2.2.J d t y y y y t 7 5 6 4 4 4 # . . . . . . + + < +.2.2.2.E o E 2.2.2.2.2.2.2.",
"<.<.<.2.2.#.j J 2.2.2.2.L t y t y y y e 5 q r 8 3 $ # . . . . . + + . i ;.2.2.2.E & E 2.,.2.2.2.2.2.",
";.<.2.2.2.%.f K 2.2.2.2.' B y y y y w 9 4 0 q 8 # . . . . . . o + . - G ,.2.2.2.E @ E 2.,.2.2.2.2.2.",
"2.2.2.2.2.%.f K 2.2.2.2.2.T y y y y 7 4 3 4 5 3 #   . . . . O @ . . a ,.2.2.2.2.E O E 2.2.2.2.2.2.2.",
"2.2.2.2.2.#.f J <.2.2.2.2.%.B y y t 7 4 4 3 3 3 X .   . . O . . . & ( 2.2.2.2.2.E o E 2.2.2.2.2.2.2.",
"2.2.2.2.2.;.H C J %.2.2.2.;.V t y y 7 4 3 4 4 3         . . . .   - ..2.2.2.2.D g s ` 2.2.2.2.2.2.2.",
"2.2.2.2.2.2.2.! V ~ #.2.2.,.J d y y 7 4 4 4 4 $ . . . . . . . . . u @.2.2.%.Q h v ;.2.2.2.2.2.2.2.2.",
"2.2.2.2.2.2.2.;.%.k J 2.2.2.%.B t y 7 4 3 4 3 # . . . . . . . . = ) 2.2.2.U = E ;.2.2.2.2.2.2.2.2.2.",
"2.2.2.2.2.2.2.2.;.[ L L %.%.K d t t 7 4 4 4 $   . . . . . . . .   p ` $.P v E $.2.2.2.2.2.2.2.2.2.2.",
"2.2.2.2.2.2.2.2.2.2.^ C J J Z V z y 7 4 4 4 $   @ . . . . . . - p p m N h D 2.2.2.2.2.2.2.2.2.2.2.2.",
"2.<.<.<.2.2.2.2.2.2.;.<.;.:.;.2.^ f 7 3 3 4 % & O . . . . . o N <.;.;.;.:.;.2.2.2.2.2.<.<.2.2.2.2.2.",
"2.<.2.2.2.2.2.2.2.2.2.<.<.2.2.2.2.L w 5 3 4 ; o . . . . . . p =.<.<.2.2.2.2.2.2.2.2.2.<.<.2.2.2.2.2.",
"<.2.2.2.2.2.2.2.2.2.2.2.<.2.2.2.2.~ B f e 6 % . . . . - 1 1 N ,.<.<.2.2.2.2.2.2.2.2.<.2.2.2.2.2.2.2.",
"<.2.2.2.2.2.2.2.2.2.2.2.2.2.2.2.2.;.:.;.I 5 # . .   . c ;.;.;.2.2.2.2.2.2.2.2.2.2.<.2.2.2.2.2.2.2.2.",
"2.2.2.2.2.2.2.2.2.2.2.2.2.2.2.2.2.2.2.2.Y 4 # .   . . m 2.2.2.2.2.2.2.2.2.2.2.2.2.2.2.2.2.2.2.2.2.2.",
"2.2.2.2.2.2.2.2.2.2.2.2.2.2.2.2.2.2.2.2.Y 4 % . . . . v 2.2.2.2.2.2.2.2.2.2.2.2.2.2.2.2.2.2.2.2.2.2.",
"2.2.2.2.2.2.2.2.2.2.2.2.2.2.2.2.2.2.2.2.Y 4 % . . . . m 2.2.2.2.2.2.2.2.2.2.2.2.2.2.2.2.2.2.2.2.2.2.",
"2.2.2.2.2.2.2.2.2.2.2.2.2.2.2.2.2.2.2.2.Y 4 $ X . . . m 2.2.2.2.2.2.2.2.2.2.2.2.2.2.2.2.2.2.2.2.2.2.",
"2.2.2.2.2.2.2.2.2.2.2.2.2.2.2.2.2.2.2.2.Y 4 3 3 .   . m 2.2.2.2.2.2.2.2.2.2.2.2.2.2.2.2.2.2.2.2.2.2.",
"2.2.2.2.2.2.2.2.2.2.2.2.2.<.2.2.2.2.2.2.Y 4 3 3 3   . m 2.2.2.2.2.2.2.2.2.2.2.2.2.2.2.2.2.2.2.2.2.2.",
"<.2.2.2.2.2.2.2.2.2.2.2.<.<.2.2.:.R L L n 7 8 4 3 $ # 2 D D D +.2.<.<.2.2.2.2.2.2.2.2.2.<.2.2.2.2.2.",
"<.<.<.2.2.2.2.2.2.2.2.<.<.2.2.2.} d t t 8 e r 0 $ $ 3   . .   G 2.,.2.2.2.2.2.2.2.2.<.<.<.2.2.2.2.2.",
"<.2.2.2.2.2.2.2.2.2.2.2.2.2.2.2.R y y w 4 8 0 6     . . . .   x ;.2.2.2.2.2.2.2.2.2.2.<.2.2.2.2.2.2.",
"2.2.2.2.2.2.2.2.2.2.<.2.2.2.2.#.z t e 7 4 3 3 3 X . . . . . O > E 2.2.2.2.2.2.2.2.2.2.2.2.2.2.2.2.2.",
"2.2.2.2.2.2.2.2.2.2.2.2.2.2.2.o.l t e 4 4 3 4 # .   . . . . . . G <.2.2.2.2.2.2.2.2.2.2.2.2.2.2.2.2.",
"2.2.2.2.2.2.2.2.2.2.2.2.2.2.,.J y 9 5 3 4 4 $   . . . . . . . . p @.2.2.2.2.2.2.2.2.2.2.2.2.2.2.2.2.",
"2.2.2.2.2.2.2.2.2.2.2.2.2.2.:.B 9 5 4 3 3 4 $   . . . .   . .   & { 2.2.2.2.2.2.2.2.2.2.2.2.2.2.2.2.",
"2.2.2.2.2.2.2.2.2.2.2.2.2.2.;.k 4 3 3 3 3 3 X . . . . . . . . . = { 2.2.2.2.2.2.2.2.2.2.2.2.2.2.2.2.",
"2.2.2.2.2.2.2.2.2.2.2.2.2.2.;.z 5 5 ; & * @ * @ & * * @ + @ * @ : { 2.2.2.2.2.2.2.2.2.2.2.2.2.2.2.2.",
"2.2.2.,.2.2.2.2.2.2.2.2.2.2.2. .] ] ] ) _ _ _ _ _ _ _ _ _ _ ) ) ` ;.2.2.2.2.2.2.2.2.2.2.2.2.2.2.2.2.",
"2.<.<.2.2.2.2.2.2.2.2.2.2.2.2.2.2.2.2.2.2.2.2.,.2.2.2.2.2.2.2.2.2.2.2.2.2.2.2.2.2.2.2.<.<.2.2.2.2.2.",
"<.<.2.2.2.2.2.2.2.2.2.<.<.2.2.2.2.2.2.2.2.2.<.,.2.2.2.2.2.2.2.2.<.<.2.2.2.2.2.2.2.2.2.<.<.2.2.2.2.2.",
"<.<.2.2.2.2.2.2.2.2.2.<.<.2.2.2.2.2.2.2.<.<.2.2.2.2.2.2.2.2.2.2.,.<.2.2.2.2.2.2.2.2.<.2.2.2.2.2.2.2.",
"2.2.2.2.2.2.2.2.2.2.2.2.2.2.2.2.2.2.2.2.<.2.2.2.2.2.2.2.2.2.2.2.2.2.2.2.2.2.2.2.2.<.<.2.2.2.2.2.2.2.",
"2.2.2.2.2.2.2.2.2.2.2.2.2.2.2.2.2.2.2.2.2.2.2.2.2.2.2.2.2.2.2.2.2.2.2.2.2.2.2.2.2.2.2.2.2.2.2.2.2.2.",
"S / <.2.2.2.2.2.2.2.2.2.2.2.2.2.2.2.2.2.2.2.2.2.2.2.2.2.2.2.2.2.2.2.2.2.2.2.2.2.2.2.2.2.2.2.2.2.2.2."
};
