/* XPM */
static char *_c5b53a923bf493be06e8fb473cc1b32u6br6DEyEJQNDEcj[] = {
/* columns rows colors chars-per-pixel */
"50 50 254 2 ",
"   c #040304",
".  c #0A0404",
"X  c #040904",
"o  c #0B0A05",
"O  c #060509",
"+  c #09060A",
"@  c #040A0B",
"#  c #0B0A0B",
"$  c #130403",
"%  c #130B04",
"&  c #12040C",
"*  c #130C0B",
"=  c #1B0C09",
"-  c #09120B",
";  c #13110D",
":  c #1B120C",
">  c #191707",
",  c #0D0C11",
"<  c #070815",
"1  c #120E13",
"2  c #180A14",
"3  c #0E1115",
"4  c #091318",
"5  c #141214",
"6  c #1C1413",
"7  c #14141A",
"8  c #1C1519",
"9  c #191A19",
"0  c #240A08",
"q  c #27160A",
"w  c #351906",
"e  c #220A13",
"r  c #211313",
"t  c #241D1B",
"y  c #2C1C1B",
"u  c #281A13",
"i  c #351B18",
"p  c #340B00",
"a  c #272518",
"s  c #37251A",
"d  c #32240D",
"f  c #091627",
"g  c #1A1A24",
"h  c #0A1E33",
"j  c #070B28",
"k  c #221927",
"l  c #351B23",
"z  c #1F2328",
"x  c #072539",
"c  c #132231",
"v  c #252324",
"b  c #292529",
"n  c #372725",
"m  c #39352A",
"M  c #262936",
"N  c #332B32",
"B  c #3C3836",
"V  c #20373F",
"C  c #1A2016",
"Z  c #481D08",
"A  c #492918",
"S  c #562C16",
"D  c #4B2F11",
"F  c #67361A",
"G  c #6C3210",
"H  c #571A25",
"J  c #482C25",
"K  c #43332B",
"L  c #47372A",
"P  c #563628",
"I  c #443434",
"U  c #4B3934",
"Y  c #593A37",
"T  c #502A29",
"R  c #673B29",
"E  c #763C27",
"W  c #6C3932",
"Q  c #514415",
"!  c #7A4311",
"~  c #59482B",
"^  c #564635",
"/  c #534F3B",
"(  c #794429",
")  c #694938",
"_  c #784938",
"`  c #705129",
"'  c #65613E",
"]  c #142944",
"[  c #1B3445",
"{  c #052B5B",
"}  c #162A5A",
"|  c #0B3457",
" . c #153458",
".. c #0C2D49",
"X. c #2B3341",
"o. c #27385A",
"O. c #313245",
"+. c #063768",
"@. c #163A67",
"#. c #073A74",
"$. c #123C74",
"%. c #193B77",
"&. c #102D66",
"*. c #22356D",
"=. c #1B184F",
"-. c #583949",
";. c #324A58",
":. c #094479",
">. c #174678",
",. c #17527C",
"<. c #1A4C6C",
"1. c #264469",
"2. c #344A66",
"3. c #274A77",
"4. c #285277",
"5. c #395274",
"6. c #387C7D",
"7. c #574942",
"8. c #525150",
"9. c #684C43",
"0. c #6A5445",
"q. c #785448",
"w. c #74524D",
"e. c #746D51",
"r. c #4E5666",
"t. c #5E7665",
"y. c #4E6D70",
"u. c #706E6D",
"i. c #833B23",
"p. c #8A3E34",
"a. c #8F3F1E",
"s. c #894619",
"d. c #A4580E",
"f. c #B4751C",
"g. c #87492A",
"h. c #964629",
"j. c #884A36",
"k. c #924B33",
"l. c #8A533C",
"z. c #865438",
"x. c #965738",
"c. c #94572B",
"v. c #A45336",
"b. c #97643B",
"n. c #917138",
"m. c #B17033",
"M. c #946015",
"N. c #CA7B0F",
"B. c #875A49",
"V. c #975A44",
"C. c #8D4749",
"Z. c #AB5C4B",
"A. c #85624D",
"S. c #966646",
"D. c #886757",
"F. c #9B6E53",
"G. c #9A6956",
"H. c #95725B",
"J. c #89724F",
"K. c #A76748",
"L. c #A56956",
"P. c #B76D53",
"I. c #B47457",
"U. c #8E736C",
"Y. c #AA7465",
"T. c #A16766",
"R. c #C87757",
"E. c #C67B6E",
"W. c #A68B2E",
"Q. c #96841F",
"!. c #C38224",
"~. c #EC9105",
"^. c #B48555",
"/. c #978368",
"(. c #B48C71",
"). c #CD914F",
"_. c #C28367",
"`. c #CC916D",
"'. c #D2AD6F",
"]. c #0E3B83",
"[. c #163E95",
"{. c #0C4888",
"}. c #164A87",
"|. c #19528A",
" X c #064996",
".X c #164996",
"XX c #0B5396",
"oX c #1C5B94",
"OX c #1A5C9B",
"+X c #165897",
"@X c #00518D",
"#X c #274A8A",
"$X c #265787",
"%X c #345683",
"&X c #265A95",
"*X c #314486",
"=X c #1B639D",
"-X c #196397",
";X c #26678D",
":X c #276599",
">X c #346C93",
",X c #0A59A6",
"<X c #1757A5",
"1X c #124FA9",
"2X c #2558A1",
"3X c #2E5BAD",
"4X c #1B65A7",
"5X c #076BB4",
"6X c #1867B5",
"7X c #0C6DAF",
"8X c #246AA5",
"9X c #2768A6",
"0X c #356BA7",
"qX c #2675AB",
"wX c #246AB3",
"eX c #396DBA",
"rX c #2979B4",
"tX c #3378B3",
"yX c #4D6685",
"uX c #43749C",
"iX c #787986",
"pX c #786F90",
"aX c #4773A9",
"sX c #627DA8",
"dX c #1F5FC0",
"fX c #1274C9",
"gX c #2E79C7",
"hX c #4376D2",
"jX c #887A86",
"kX c #3087B7",
"lX c #1784BC",
"zX c #768790",
"xX c #4F8AAF",
"cX c #6F8AB0",
"vX c #67A0BE",
"bX c #318BCD",
"nX c #4585C3",
"mX c #449AC9",
"MX c #719FC5",
"NX c #938F91",
"BX c #BBA793",
"VX c #A8B1BB",
"CX c #88A7B7",
"ZX c #D3B38E",
"AX c #AACEAE",
"SX c #CCC68C",
"DX c #CDC4B3",
"FX c #ECD69B",
"GX c #89B0D7",
"HX c #AAB7CD",
"JX c #88ACD4",
"KX c #ADCBD0",
"LX c #AFC2FC",
"PX c #DCD9D2",
/* pixels */
"+ # , @ # , , @ # # # # @ + + # < O   . o .   + @ O O O       O + .           .                     ",
"  O O O O # , +   O @ O + O + <   , m / m N b o X   O O . o O O X O O o +   O X               . + # ",
"        O , + O         O O O O a L m s ^ ^ I / 9                 X X   + X           . o   o X . + ",
"        O O , O           O O , K 9.0.) B.D.) P m X @         O           X         . + + + + + . O ",
". # # + # + +             O O # Y 0.q.R _ H.D.T A .     O o                     + + + # o + + + o O ",
"# * # # O O O               O O K n J d w P D.D.P s X   X . .     +         . . + + + + . X .     . ",
"o # # .                         d 0 ` G.F R F.e.l.) = - 1 = & ; * # * # + # # o o . +       O     + ",
". o o .       .                 P _ S.V.x.x.z.( i.) $ 1 6 r 6 6 6 1 * 2 * # # . # + .     . . + .   ",
"  O O X         .         O . . H ( S Z ( x.C.s.E 5 5 $ 9 * e @ # - 1 * # o % ; * % o #     . X + . ",
"+ O O +         <       O       % J S ) Y R ! j.A.& % q # 7 * O   o * # # & & * ; & o + .       + + ",
"# O + X O       .     o . + 4 X < C L j.G ( Y _ A.k : $ 2 f   . o + + # o o o o % o .         # , , ",
"    O           $ .   o       # . < K Z G A U _ b.9 O e # - * O + + + # # & o o . .   O @ O # , , , ",
"    O   O O       4 O   o   . @ ~ J.7.6 a q G p.S.e.h h   o . 4 + X O # , ; ; * # # # , < + + # , , ",
"      O # @ + O     g # O < <.>XGX'.E J n R F ! b.'.vXrXO.=   , + O + # # ; # * # ; , 1 , O O # , # ",
"    O O # # # + %   # $ y NXKXvX5XvXSX` E a.x.` L.`.AXbXGXzX> . # # + , , 1 # # # , , , # O O # O # ",
"      O # @ @ O O O 3 u.(._.(.DXbX,XmXDX!.v.x.h.H.^.DXbX1XPXBXU.O O O # # , , ; - , , , < O O # + < ",
"  . .     * . * & = /.(.I.K.m.'.GX5X>XbXHXSX'.K.f.FXHXkXkXhXZX`.0.4 j e 5 < & 1 5 O   + # # O O + + ",
"      X . o . o . ' /.b.V.P.x.^.LXy.W.0XdXaXJXFXFXGXlXkXMXhXKXP.U.M N I v 7 8 N k , O 7 k v 8 , # # ",
"    . X .   .   0 J.S.b.k.x.j.K.PXwXu.t.rX7XfXnXKX5XfXbXxXeXHX(.H.g 7 : < O O 5 1 .   , 7 8 5 1 5 , ",
"  .   X     #   d S.c.h.g.( G S.DXfX6XrX5XqXfXfXrX6XtXfXrXbXvX(.F.7   . , , #   . o # +     < 7 1 , ",
"  .     . X +   P V.h.a.g.G p (.CX1X<X9XoXr.aXt.u.iX;X6.uXlXmXH.S.* X .       O o o .   O + # , # + ",
"  X X   X . . * j.E g.h.g.S w BX1.-.^ ` K.f.$Xn.!.f.t.J.A.t.pXK.b.% O o O     # o X     X + O O O O ",
"1 O 3 X o o $ U l._ x.g.E R 7.u.c d.d.Q M.~.yXS.N.M.n.d.B.m.c.g.K.#   . < O .     . +       . . . . ",
"5   @   # % 0 u.K.x.j.g.C.Z N h x s.h.z.7.` }.r.r.y./ w.) f.P G K.6 O   O < .   # #   .   . X       ",
"O O o @ 4   J L.G.b.s.Z.F q x } [ I s ;.@.%.{. X1X3X[.}. X5.y G K.^   # .   @ O # + + + .     . X O ",
"#   #   @ . 0.F.G.c.k.E S a x &.{ 4.@.].].@.}..Xf.Q.#X|.,X*X6 P K.A..   2 o O   . o + X     + O +   ",
"O   # +   y D.S.g.h.V.Y S m h } %.#X+.+.&.*.3.}.0.n.<.{.+X2.= F v.Y.q   O , O       . +       . . + ",
"  + + #   ) A.g.( h.q.z n B h &.@.0X{.].+X}. X1X;.m.$X}.,.4.% A c.I.P     & .       . + # # +   o . ",
"  O . . q D._ ( F h.P f B 7.x | { >.$X&X1X XXX}.&XJ.:.#.#X*X0 H s.K.A.  @       + + + # , # + + o # ",
".   #   Y G.l.( E E 8 f 8.r...{ +.3.1. .#X.X$.2.W.m.4..X&XV X a ( x.F.~ X   ,     + # # # # + O + + ",
".   @ # q.B.x.j.j.D   j O.r. .$..X1X|.+.+.}.<X.Xe.' ].$.|.=.% s ( k.L.G.n X , . + # , # + + O + # # ",
"$ o O t D.z.x.j.k.d @ =.N t.@.}.@.&X0X@.&..X.X+X&X&X1X}.|.f 5 w j.K.x.V.(.-   2 , 7 8 7 , # , 2 7 7 ",
"$ +   s B.k.k.z.W : h >.o.8.>.%. X3.#XOX{ } -X1X:X&X.XXX1.7   y F S.k.x.^.)   < 1 7 7 g g & , . 1 1 ",
"  o   K A.k.g.z.T . X.yXX.iX=XOX}.>X%.}.<X{ ,.<X9X&X.X X@.+   r A W V.c.S.H.$ <   # 7 + + O     , , ",
"  @   U q.( g._ a   B r.. iXXX,X+XrX9X X6X$.| OXwX8X<X,X .O   $ i P j.x.k.L.U   * . @ # . . X X + O ",
"# 7 + / B.g.z.W     X.[ > VX:X@X X;X9X1X<X&X{.{.wX&X<X6X| , @ # % n T j.v.x.A.o O X   o &   , X   o ",
"* , 5 9.B.j.B.Z   .  .| v r.] %X2X>X|.<X+X|.3X,XeX:XOX4X] $ ; *   . s R k.k.G.~ . # #   2 2 O < # # ",
"O   o U B._ q.0 . $ *.|.;.+ 2 CXXX6X<X>.#.{ *.#.&X$X}.4Xx $ X   o . t J R j.l.G.I . , 7 1 k , O o + ",
"5 3 X K B.q.Y = 3 0 4.+X1.v l yX;XeXbXqXOX}.} | #.:.#.-X] $ O   - v g N J P l.V.D.q . 3 , , #   . O ",
"3 g O L D.q.n # f $ 4.<X1.O.^ uXzXpX:.bX4X7XgX8X2X>X+XtX[ $ 4 4 9 g O.g N J E i.Y.U.t   7   ; : , 1 ",
"o 2 j y.NXjXk @ o 4 >.$X3.8.8.cX3.aX&XtX=X-X4X4X6X>XqX<X1.3 # < 1 7 g z N 8 t U.zXb ' q.s z $ - e & ",
"X   O 0.T.(.A . % < >.;X%.2.n yX&.>.tXqX-XOX4X+X6X;X4X6X1.5 ; , # , 7 7 g 5 6 w.V.Z.h._.W a w.d t $ ",
"<   A l.Z.).D . = 1 +.oX$X5.% r.$X>.#.kXrX4X|.8X6X;X-X4X1.o ; O + + , , 1 1 : B R.`.c.K.G.p _ L.J u ",
"@ . A P.R.(.n < $ 8 +.}.&X4.b iX>.&X+XXX8X:X8XoX8X$XoX4Xo.. * < # + 3 , # , , 6 I.`.^.v._.Y 0 T T i ",
"9 ; % Y.R.Z.$ = i 1 $.:.:X$Xu.NX>.+.8XOXoX:X|.oX;X$XOX8X[ $ 5 5 # + ; , O 3 ,   Y E.E.P.P.Y.C.I i i ",
"9 6 : q.E.Z.E C.9.% @.+.&X-XNXu.$X:.{.8X8XkX+XXX|.>.<X:Xc * 8 7 o X - # # 5 7 + e C.V.I.x.S.Y.I y 6 ",
"a e * q B.k.F R P 6 3.>.,.@XcXNX>.|.}.{.9XtX4XqX<.>.4X=Xf r k 4 + + # # + 5 8 2 - ; a L e.) T.w.y 6 ",
"r l r - w Y * 4 0 : 1.&.,.,XsXPX3.+.|.|.}.bX4XbX<.:.wX4Xc y z 4 # , # # # 1 a r i a v k N 9 n b J n ",
"n u 6 6 - . ; * 5 b 1.#.>.&XuXPXNX+.>.|.|.;X0XrX:X:.qX4.N M v # 3     * % u i i : 6 y b v C 5 9 t t ",
"I n 8 6 ; + ; 6 N U 5.#.%.&X>XPXHX>.$.}.|.-X0XkXkX|.wX%XN M z # @ @ a L K L K i r 6 k v v 9 5 9 6 6 "
};
