/* XPM */
static char *e20f2681aeb846d3d9884022cdaa0112UjdXMMQx302wgkV2[] = {
/* columns rows colors chars-per-pixel */
"50 50 251 2 ",
"   c #04040A",
".  c #09060D",
"X  c #05090E",
"o  c #0A0B0D",
"O  c #060004",
"+  c #150202",
"@  c #130C0E",
"#  c #1A0B0C",
"$  c #150507",
"%  c #18120C",
"&  c #0D0C14",
"*  c #0B051C",
"=  c #0C0D1A",
"-  c #060B13",
";  c #120E14",
":  c #1A0E14",
">  c #130E1A",
",  c #1C0F19",
"<  c #0D1115",
"1  c #0D111A",
"2  c #131116",
"3  c #1A1315",
"4  c #14141B",
"5  c #1A151C",
"6  c #15191E",
"7  c #1A191D",
"8  c #1D1914",
"9  c #290806",
"0  c #3A160D",
"q  c #240E1A",
"w  c #2C0B1C",
"e  c #270C15",
"r  c #330B1A",
"t  c #24131C",
"y  c #231D1B",
"u  c #2A1B1C",
"i  c #261715",
"p  c #361A16",
"a  c #22140D",
"s  c #29211D",
"d  c #382419",
"f  c #0D1426",
"g  c #151521",
"h  c #1A1622",
"j  c #151A24",
"k  c #1C1B24",
"l  c #1C1D2A",
"z  c #15162A",
"x  c #0D0934",
"c  c #140438",
"v  c #16173D",
"b  c #0B0E2D",
"n  c #241621",
"m  c #231D24",
"M  c #2C1A22",
"N  c #211E2A",
"B  c #281721",
"V  c #351725",
"C  c #391C35",
"Z  c #2F0D2A",
"A  c #1E212B",
"S  c #1E2226",
"D  c #1D2138",
"F  c #222126",
"G  c #24232B",
"H  c #2A2728",
"J  c #372927",
"K  c #3D3129",
"L  c #282631",
"P  c #272834",
"I  c #352D32",
"U  c #3A3639",
"Y  c #2F3035",
"T  c #441406",
"R  c #461A18",
"E  c #4A251A",
"W  c #57291A",
"Q  c #5C2B0B",
"!  c #462A26",
"~  c #562E22",
"^  c #483329",
"/  c #583528",
"(  c #473834",
")  c #533B33",
"_  c #583936",
"`  c #4F2C38",
"'  c #673827",
"]  c #673E36",
"[  c #622C14",
"{  c #58433A",
"}  c #4A473E",
"|  c #754226",
" . c #644435",
".. c #6B443D",
"X. c #67473A",
"o. c #74483A",
"O. c #724C31",
"+. c #180759",
"@. c #161B4D",
"#. c #321851",
"$. c #1A2145",
"%. c #1C2158",
"&. c #262848",
"*. c #3A3A44",
"=. c #262856",
"-. c #3F2240",
";. c #1D0B63",
":. c #210465",
">. c #1F2265",
",. c #282A67",
"<. c #2F316F",
"1. c #433C45",
"2. c #453B57",
"3. c #53344D",
"4. c #4A346E",
"5. c #6F3E42",
"6. c #38407F",
"7. c #3E4148",
"8. c #454448",
"9. c #584A48",
"0. c #4A4B56",
"q. c #575355",
"w. c #544F4F",
"e. c #674944",
"r. c #724943",
"t. c #66544A",
"y. c #785749",
"u. c #665A58",
"i. c #765A57",
"p. c #6C4551",
"a. c #78645B",
"s. c #6F6455",
"d. c #5D5C66",
"f. c #4E436C",
"g. c #65536D",
"h. c #5E6166",
"j. c #696566",
"k. c #776B68",
"l. c #777678",
"z. c #716D74",
"x. c #85533A",
"c. c #925B3E",
"v. c #91633F",
"b. c #865946",
"n. c #825D53",
"m. c #945E42",
"M. c #8C6449",
"N. c #97664A",
"B. c #96714D",
"V. c #876759",
"C. c #996B55",
"Z. c #9D7257",
"A. c #A46D59",
"S. c #A6775B",
"D. c #876C64",
"F. c #88736A",
"G. c #997769",
"H. c #8B7974",
"J. c #977A74",
"K. c #926E62",
"L. c #A77A67",
"P. c #AF7C6A",
"I. c #988378",
"U. c #93826F",
"Y. c #AC836C",
"T. c #A98168",
"R. c #BB866A",
"E. c #A88673",
"W. c #B48678",
"Q. c #C49273",
"!. c #280795",
"~. c #2D0D96",
"^. c #333290",
"/. c #3518A3",
"(. c #4237B1",
"). c #3D4181",
"_. c #43479C",
"`. c #4B4A90",
"'. c #79738F",
"]. c #4D50B0",
"[. c #766DA2",
"{. c #3C0ED2",
"}. c #3F25C4",
"|. c #430DD1",
" X c #450CEE",
".X c #4F32E8",
"XX c #4B3CCD",
"oX c #5B57D6",
"OX c #6567D8",
"+X c #5C50EC",
"@X c #6663EA",
"#X c #8B7D85",
"$X c #8A73A9",
"%X c #898788",
"&X c #958788",
"*X c #989596",
"=X c #95958D",
"-X c #A78B89",
";X c #B48E84",
":X c #A59685",
">X c #B69486",
",X c #A89699",
"<X c #B89C9A",
"1X c #A88D92",
"2X c #A8A49A",
"3X c #B4A29A",
"4X c #9E97B7",
"5X c #8D8CA2",
"6X c #B6A6A6",
"7X c #A6A6B9",
"8X c #B9B4B9",
"9X c #A9A5AE",
"0X c #B19CA5",
"qX c #C8A898",
"wX c #D3AA97",
"eX c #C4B5B7",
"rX c #CEADB3",
"tX c #D4C7B7",
"yX c #B0A4D6",
"uX c #C9BCC1",
"iX c #D0BEF0",
"pX c #D7C8CA",
"aX c #CDC9D3",
"sX c #D3D5DA",
"dX c #CCCAD0",
"fX c #F2DFDE",
"gX c #E8DEDC",
"hX c #EFE7DA",
"jX c #D8D7E7",
"kX c #E3DEE7",
"lX c #E3D9FC",
"zX c #DEEAF1",
"xX c #E8E8EA",
"cX c #F6EAE9",
"vX c #EFF3EC",
"bX c #F9F7ED",
"nX c #E4EBF4",
"mX c #ECEBF4",
"MX c #EDECFD",
"NX c #E8E4F4",
"BX c #F2EEFC",
"VX c #F5EDFB",
"CX c #ECF3F5",
"ZX c #ECF4FC",
"AX c #EBF8F9",
"SX c #F3F4F5",
"DX c #F3F4FC",
"FX c #FBF5FD",
"GX c #F2FAFF",
"HX c #FEFBFD",
"JX c #F9F8F3",
/* pixels */
"k l k k h h 4 > > > > > = = - . . @ @   o 2 1 - - - < 1 X X & & ; o > 6 = * o & @ @ # @ ; & 1 2 > > ",
"N G N N l h h h g h g 4 > > > & . . ; > <       X   X - < 2 2 X & o & = = - * & @ @ # : : > = & > ; ",
"L L L G N l l h k k k h g 4 4 > : ; .   - 7 j < X < < X O . > 2 & . . - & = & < @ ; % 3 3 > < & ; ; ",
"L L L L G G N N N N l k k h h 4 > & & > 2 &   X 6 L 7.} Y m 2 O @ . . & 1 1 1 1 @ @ 2 3 3 6 2 1 ; = ",
"L L L L L G G G N F N F k k h h 4 & 4 l 2   F q.%X%X#Xl.k.u.( 3 3 o . & 1 6 6 1 & @ % 2 7 5 1 1 & ; ",
"G G G G L L G L G G G l F k k k k k 4 - 4 U l.9Xl.u.w.9.8.9.u.9.s 8 o & j f 6 < ; o ; 3 7 6 6 4 & = ",
"G G L L L G L G G F G F F k S k g G k 6 U l.=X&Xj.u.u.u.9.( _ 9.( s 2 < 6 j f 1 2 > o 2 4 7 1 < = & ",
"L G H H G L G G G G G G G F F F G g k *.j.'.=X2XI.k.F.J.H.D.a.i.9.K s < 6 j j j 6 < 2 2 2 5 2 - & & ",
"H G G G H G L G F F G G G F F F G k Y 8.q.l.%Xk.9.a.a.F.V.V.y.s.e.{ I 7 4 S z A 6 4 ; ; ; 2 < o & & ",
"S F F G G G F F F F F G G G H F l 6 Y 8.w.j.k.s.a.a.a.J.J.D.e. .t.t.( s 6 j j j 1 2 ; & & & ; > 1 & ",
"k F F F G F k 7 7 k F G H G G F G l U 8.9.u.s.9.^ / { V.V.i.y.y. .{ ^ H 7 j j j f 2 & o o 2 4 2 4 4 ",
"7 7 7 F F F 7 2 7 7 F F G G G F l k G U 8.t.{ d p ^ y.G.V...E 0 / ) ^ u k h j g 1 = & . ; 2 5 5 5 h ",
"2 4 7 k F 7 4 2 2 7 F F G G G F L F I w.j.t.{ d d E ..G.V.y.~ E / ' ) p B k z z = * - ; : 5 h m n h ",
"o 2 4 7 7 7 2 ; 2 4 k F F F F F m 7 I u.s.{ d d { E ' K.r.E R / /  .) J m N z z 1 = & : 5 5 n m n n ",
"o & 2 7 7 7 2 o & 2 F F F k F F L U w.u.k.a.t.{ V.y.L.qXG.r.] y.O.../ J B G l z f > 4 4 h B n B n n ",
"& & 2 5 7 4 2 & ; 4 7 F s S F F I u.u.t.D.3X>XV.C.G.W.qXL.M.b.o.o.y.] p i B k k > h 5 n B B n Z n t ",
"* = > 6 2 2 2 < & > h l A A S y J ^ p  .V.K.T.>X>XP.P.wXP.A.Q.R.P.A.[ y.e.# H t t B M V V V Z r r r ",
"* = > 4 2 ; o o = > g l S S S s { y. . .o.s.V.U.n.~ W ' ' m.R.Q.R.N.| ' ^ i t u B M V V V V r r r r ",
"* = = = & o X < & = 4 h k k S 8 ( K.V.{  .O.M.U.P./ R T T M.P.S.A.c./ ..^ u e u B M V V V V Z Z r r ",
"* * * & - X X - & * = 4 j 6 7 y K H.J.{ / / t.B.;Xn.o.o.O.P.R.N.x.| W G._ # t 5 B B B u w w r w r 9 ",
"= = * - X X < < * & = 1 6 4 7 8 i t.s.} d ^  .s.p.] r.b.] b.b.x.o.' ] -X( @ M 3 5 t q e q w w w e r ",
"= = - - o o X < * & = 1 4 4 5 8 % 8 K K d ^ { { ! ~ _ ] W W ] x.' E ..i.t , h 4 5 , , e q q q w e e ",
". & - . X o - < = = = 4 1 4 3 2 8 % } } a d K d p + 9 9 9 E W ] ~ R ! u $ > & 4 > , , , q q t q q e ",
". . o o X X < < = 1 = f 4 4 7 7 6 o w.j.% s ^ K _ + + + 0 y.' ~ 0 ! + O n ; * g > : , ; , , , 5 : # ",
"& & . . o - < 1 f f f A j j 6 k 6 < 7.z.8 i J ( J.H.a.F.J.n.5.R p 9 e # > 4 = 4 * ; @ ; : , , , : ; ",
"* * * * = = f f j j f j A j j 1 < < h.l.U y 3 K t.0XrX;XV.5./ 0 p # : ; * 4 = 4 ; ; ; @ > : > 4 ; 2 ",
"c c c c x x v $.D D D D D D A S A A '.j.U 8 8 ^ ! 3.X.` _ ] ! 0 ! $ $ 2 & f 4 = ; ; ; @ ; : 4 > < < ",
":.:.:.+.+.%.>.,.<.6.<.&.v f A A j &.*Xl.*.s J e V # a ! 5.] 0 0 ( $ o 7 4 h z 6 > & ; ; 2 2 4 2 - < ",
"!.!.!.!.!.^.^._.].].6.<.&.$.$.P z '.7Xz.I H J # i p ( / ! E 0 ^ ( $ < k g l A k 4 1 ; ; 2 7 7 4 2 < ",
"{.{.}.}.}.XXoX@XOX].`.6.,.$.z v 0.yX4Xh.*.L u J e a r 9 9 0 E  .^ $ % 7 j A L S 3 : @ @ 4 7 g 6 2 o ",
" X X X X.X+X+X@X@XoX].).%.v &.7.5X4X'.z.d.( u p i p p p d 0 ~ X.s % 2 6 j A S F 5 2 @ 2 4 7 6 6 > ; ",
" X X X{. X+X+X@XoXoX).<.%.f.4XZXjXh.f.g.g.2.U M p ! 0 0 E W O. .a < 8 4 k A S F 5 2 ; @ 2 7 g 4 > ; ",
"!.!.!././.(.(.]._.^.).%.=.zXHXHXHXkX4X4.,.`.2.Z V _ R R [ Q x.' a X G < S 6 l 4 4 2 & ; 4 h 4 4 > < ",
":.:.+.+.;.<.<.>.%.=.D &.HXDXVXHXJXFXFXyX4.,.4.3.` R W [ [ | | W + j j 1 S S & G 2 2 & & 4 h h g > 2 ",
"* @.x x v v b f D 1 A dX=Xk.I.tXcXFXcXHXVX[.+.#.C ` W ' ' ' x.` O k & S 6 2 Y & 2 2 & > h k k h 2 > ",
"* h g z z 1 f f 1 < 2Xl.s.2X:XF.#XpXcXJXFXVXyX`.#.3./ W 5.] 5.rX#Xg = l G > 6 N 2 < 2 6 h k l k < & ",
"M t 3 7 2 6 A S < l.=X6XhXtXtXqX;XJ.6XFXFXSXHXlX[.Z C p.] 5.p.p.VX8X1.> L = k 4 > 1 = 4 z l l l 2 1 ",
"H 8 F k 6 G j - h.8XgXgXtX3X3XqXqX>XF.0XHXHXxXHXVXiXg.-.3.p.p.C 7XHXNXd.  L k & & = 2 6 h l l N j j ",
"F 7 L k A A = *.aXmXiXeX,X1X:XI.Y.Y.L.J.eXHXHXCXVXVXlX$X4.g.i.p.w.VXFXNX0.  l g & 1 f g z l l D k j ",
"k 4 l 4 G g z 8XkXdXeX0X1X-X<X;XR.T.Y.V.J.gXHXvXSXBXVXFX4Xf.D.i.u.MXMXFX8Xz > g & = 4 j j l l A A z ",
"& 7 & k 6 O j.dXdXeX,X-X:X;X;XW.P.P.L.Y.M.:XbXJXGXMXZXGXMXxXpXH.aXMXBXBXDX8.= 2 & 2 6 j l A A l h j ",
">   5 > 7 m *XdX6X<X-XE.E.E.Y.Y.P.A.S.L.M.U.hXJXZXZXZXGXxXcXJXpXkXDXBXBXFX%X& 7 & = 6 j l A A z 6 g ",
"2   h o 2 q.eXeX3X:XE.U.T.T.T.S.P.A.A.B.B.s.tXHXZXGXAXAXxXcXHXJXVXFXmXmXDXaX6 6 < 2 4 h A G A j 1 2 ",
"h > 7 4 n &X6X6X-XI.I.E.T.R.T.L.A.A.N.B.B.O.E.JXGXGXAXAXJXvXvXvXDXDXmXmXMXHXw.< 4 2 < 6 k S l j 4 6 ",
"N N h 5 ( *X,X,X&XJ.G.U.E.Y.T.S.A.A.N.C.C.o.D.bXSXSXAXAXGXDXxXxXmXZXSXSXnXHX*X  6 2 2 2 6 k k h 7 6 ",
"m m N q k.=X&X&XH.G.G.T.Y.Y.L.S.N.B.c.N.b.r.i.cXJXvXAXzXnXnXxXSXxXCXmXMXxXJXsX< 3 2 < 2 4 6 k 7 6 7 ",
"s s s u l.F.F.H.D.V.K.G.T.L.S.B.N.v.m.b.] r.i.fXHXCXAXzXzXnXnXZXxXCXnXSXnXxXvXY < % 2 2 2 2 3 7 4 7 ",
"y s i J k.F.a.V.V.V.V.C.Z.Z.C.N.m.x.C.o.] 5.D.fXHXxXGXAXAXGXMXMXnXCXxXGXSXCXJXh.< < 4 3 2 > > 4 7 7 ",
"5 3 3 U i.i.y.y.M.M.M.N.C.C.N.N.c.x.x.o.~ X.H.xXSXDXxXsXsXjXGXsXnXkXAXsXCXdXsX9X< < 2 6 6 @ @ 2 2 2 ",
"5 3 , K i.u.t.y.o.M.M.M.N.N.N.m.c.x.x.| ~ 9.I.cXSXsX7.Y h.h.jX9Xh.8.'.7.q.q.0.*.6 < 3 6 2 < < 2 4 3 "
};
