/* XPM */
static char *e30d2a8cdec346e5883b08adb45f6c14aGodg2ARLvGJzd5X[] = {
/* columns rows colors chars-per-pixel */
"50 50 236 2 ",
"   c None",
".  c #1D191A",
"X  c #211D1D",
"o  c #34251E",
"O  c #221F20",
"+  c #252222",
"@  c #2A2525",
"#  c #2F2925",
"$  c #2D2A2B",
"%  c #322D2B",
"&  c #352B26",
"*  c #3B332D",
"=  c #37302A",
"-  c #353232",
";  c #3B3634",
":  c #3D3A3B",
">  c #3B3838",
",  c #322F30",
"<  c #57321F",
"1  c #482D1E",
"2  c #68391E",
"3  c #753D1E",
"4  c #462E23",
"5  c #463429",
"6  c #543423",
"7  c #5B3621",
"8  c #573727",
"9  c #463D34",
"0  c #423E3D",
"q  c #473932",
"w  c #643A22",
"e  c #6A3C22",
"r  c #623D29",
"t  c #723F21",
"y  c #7B401D",
"u  c #4C4237",
"i  c #554738",
"p  c #5E503A",
"a  c #7A4222",
"s  c #6C5A3F",
"d  c #63533C",
"f  c #6C4F37",
"g  c #423F41",
"h  c #464343",
"j  c #4A4544",
"k  c #4D4A4A",
"l  c #4E4943",
"z  c #534B44",
"x  c #554D49",
"c  c #5A534D",
"v  c #555253",
"b  c #5C595A",
"n  c #5B5755",
"m  c #524F50",
"M  c #6C5B42",
"N  c #635A4E",
"B  c #695B48",
"V  c #705E41",
"C  c #7D5E4D",
"Z  c #665C52",
"A  c #635F5D",
"S  c #685A53",
"D  c #796545",
"F  c #796646",
"G  c #6B6258",
"H  c #766659",
"J  c #7D715F",
"K  c #6C6664",
"L  c #6E6B6B",
"P  c #676464",
"I  c #726C68",
"U  c #77726D",
"Y  c #716F70",
"T  c #757273",
"R  c #7A7878",
"E  c #88451E",
"W  c #9A4C1E",
"Q  c #B4571F",
"!  c #A9531F",
"~  c #854621",
"^  c #954B21",
"/  c #955631",
"(  c #AB5421",
")  c #A45525",
"_  c #B55621",
"`  c #B65A22",
"'  c #A24E21",
"]  c #B46434",
"[  c #C45C1E",
"{  c #D2621E",
"}  c #D9661F",
"|  c #E86B1E",
" . c #F36F1D",
".. c #F5701E",
"X. c #C35D21",
"o. c #CD6322",
"O. c #CB6A2E",
"+. c #D66724",
"@. c #CE7036",
"#. c #EB6E21",
"$. c #E46B21",
"%. c #F47221",
"&. c #F87321",
"*. c #F67D33",
"=. c #E7742D",
"-. c #836D4A",
";. c #836C47",
":. c #89724B",
">. c #967C4E",
",. c #8C7652",
"<. c #897457",
"1. c #957C52",
"2. c #987E51",
"3. c #917D5C",
"4. c #8F6D59",
"5. c #A46743",
"6. c #BB7348",
"7. c #AE7756",
"8. c #886F60",
"9. c #85786B",
"0. c #987968",
"q. c #837B74",
"w. c #957F73",
"e. c #A67C64",
"r. c #D67C45",
"t. c #F9853E",
"y. c #9A8156",
"u. c #9D845A",
"i. c #96805B",
"p. c #A1895F",
"a. c #9D8864",
"s. c #8B8377",
"d. c #8A837B",
"f. c #908678",
"g. c #93897B",
"h. c #978878",
"j. c #8C806F",
"k. c #A38C64",
"l. c #A8886B",
"z. c #B58467",
"x. c #A8926B",
"c. c #A38675",
"v. c #AA9676",
"b. c #B49B7C",
"n. c #B48E77",
"m. c #B4A07F",
"M. c #DA8A58",
"N. c #D18251",
"B. c #EA8547",
"V. c #E8935E",
"C. c #EF8A4C",
"Z. c #CC8A62",
"A. c #C59477",
"S. c #DA956B",
"D. c #E4996C",
"F. c #F9A26C",
"G. c #EEA679",
"H. c #858384",
"J. c #8C8B8C",
"K. c #8B8785",
"L. c #928E8A",
"P. c #978C82",
"I. c #9B9284",
"U. c #9C958A",
"Y. c #969189",
"T. c #9B9895",
"R. c #908F90",
"E. c #A59B8D",
"W. c #A99488",
"Q. c #B79A89",
"!. c #A49D98",
"~. c #B29E92",
"^. c #B5A282",
"/. c #BAA88B",
"(. c #A4A19D",
"). c #ADA59A",
"_. c #AAA193",
"`. c #BDAD93",
"'. c #B1A49A",
"]. c #B3AA9C",
"[. c #B0A490",
"{. c #BFB096",
"}. c #ADA9A5",
"|. c #AAA9A8",
" X c #A7A4A2",
".X c #B1AEAA",
"XX c #B4ACA4",
"oX c #BBB4AB",
"OX c #BAB3A9",
"+X c #B6B5B5",
"@X c #BAB7B4",
"#X c #BEBAB5",
"$X c #BCBBBB",
"%X c #AEAFB0",
"&X c #C2B39A",
"*X c #D1A68C",
"=X c #E4AE8C",
"-X c #EEB490",
";X c #C2B5A3",
":X c #C6B9A7",
">X c #C4BEB3",
",X c #CDBCB1",
"<X c #C3B7B1",
"1X c #CBB7AC",
"2X c #C29F8A",
"3X c #CEC2AD",
"4X c #C9C1B5",
"5X c #C3C0BD",
"6X c #CCC5BB",
"7X c #CFC8BE",
"8X c #D5C9B8",
"9X c #D0C4AF",
"0X c #EAC8B4",
"qX c #F1C6AB",
"wX c #BCBEC1",
"eX c #BFC0C2",
"rX c #CCCACA",
"tX c #C8C5C3",
"yX c #D4CDC4",
"uX c #D4CFC9",
"iX c #D5D1CB",
"pX c #DBD4C9",
"aX c #D4D3D2",
"sX c #DCDBD8",
"dX c #CED0D1",
"fX c #E2CEC2",
"gX c #E3DDD3",
"hX c #E0DEDC",
"jX c #E3D7CA",
"kX c #E7E2D9",
"lX c #E9E8E6",
"zX c #F1EEE7",
"xX c #F5F5F4",
"cX c #FEFEFE",
"vX c #FAF9F7",
"bX c #F2F0ED",
/* pixels */
"                                          cXcXcXcXcXcXcXcXcXcXcX                                    ",
"                                    cXcXcXzXgX8X9X:X&X:X3X8XgXzXvXvXcX                              ",
"                                cXvXkX3Xm.k.y.>.>.>.>.>.>.>.y.k.m.3XkXvXcXcX                        ",
"                            cXvXpX/.u.>.y.x.m.`.&X;X;X;X&X`.m.x.y.>.y.m.8XvXcX                      ",
"                        cXcXgX^.y.>.x.{.:X XK.L v k k x v P H.(.OX{.v.y.y.b.pXvXcX                  ",
"                      cXxX&Xu.y.v.:X XL 0 4 o 1 ' Q Q Q ( E 3 4 : P ).;Xx.>.u.`.bXcXcXcX            ",
"                    cXzXm.>.u.&X].b * 3 ` ` w o.#.+.` ( W a a 6 o . + k c u u i G T.+XrXlXcX        ",
"                  cXkXv.>.v.4XT * E { #.o.7 6 2 1 & # $ k v $ . v H.P O k v . + 0 - + $ v bX        ",
"                cXkXv.>.^.oXm < ( Q y 6 & : $ > T.+Xb U sXpXR = rX4XaX: E.|.X # oXH.O . h bX        ",
"              cXbXv.>.^..X0 o w 4 % , % !.oXj u OXoX% f.OX].K.u iX9.iXu E.|.+ # 4XJ.X O h bX        ",
"            cXcX`.y.v.XX: . + ; L Y.b * 7Xn O X f.(.. f.oXXXH.u iXU.iX0 E.|.+ # 4XR.O . h lXcX      ",
"          cXvX9Xy.F N ; , H.h N 7XOX: * 5Xm + X g.(.X s.lXkXT : gXsXhXh E.|.. # 4XJ.. O = :XcX      ",
"      cXcXjXm.-.u & > + Y.R.@ N gX#X, * uX#Xj X g.(.X s.#XOXK.u uXs.iX: E.|.X # 4XJ.O O = u.lXcX    ",
"    cXlX&X,.i @ - !.tX: XXL . c kXgXP * 6XG + X g.(.X f.}.).H.u uXq.uXu E.|.O # 4XJ.. O = :.&XcX    ",
"cXvX8Xa.s = > % s.OX4X: h. XO G >XXXT * 6Xh X X g.(.X f..X).K.u uX9.uXu E.|.O $ 4XJ.O O , ,.k.zXcX  ",
"cX#X,.<.$ I rXI U.oX6X> p 6Xg N oX].T * 5Xh X X g.(.X f.}.).H.u uXR uX0 E.|.. # 4XJ.O . u a.>.8XcX  ",
"cX(.,.s.c >X;XY U.gXuX: # ;XL N #X].Y * 6Xv @ O g. XX f.uXyXq.0 iX9.iXg E.>X0 % >XJ.. O j `.1./.cX  ",
"cX(.,.s.Z iXiXP U.(.<X: X !.R N #X].Y * ,X@Xj . H I . N E.H.- * q.N I.- w.iX@Xh :XrXR $ > >Xu.x.bXcX",
"cX(.,.s.Z pXyXU I.E.<X: c #Xk z s.G 9 @ l l 0 0 l c N S S A S S S N v h j x z $ G h.U.$ + }.x.u.kXcX",
"cX(.,.s.G @X].T U.E.'.; G v O q l Z G j.n.A.S.D.-X-XM.=XC.*.=XF.B.C.C.C.S.*XA.z.0.H c 0 $ R.b.>.pXcX",
"cX(.,.s.Z iX>Xb Z x : : v 8.e.S.V.V.0.7.*Xn.=Xz.<X,X6.,XC.{ '.F. . ...| *XyXqXt.r.qXqXD.C H./.>.8XcX",
"cX(.,.s.x E.n $ l H z.Z.4.M.V.Z.A.Q.~.d.@X'.=Xc.1X,X6.1Xt.{ ~.F. ...%.{ ~.W.,Xt.5.aX~.B.a R /.>.9XcX",
"cX(.,.f.$ j T J.G r.r.N.e.c.W.~._.}..XR.<XrX-Xc.6XfX6.1Xt.{ '.F.+.2XG.+.'.A.,Xt.5.fX=.%.a R /.>.8XcX",
"cX(.,.[.g.v.Q.!.x 4.h.c.W.W.!.|.@X5XuX XoXP.=Xw.Q.1Xr.,XB.+.'.F.X.XX0X+.~.Q.,XB./ lX0XC.3 J./.>.8XcX",
"cX(.:.k.i.<.U d.A 8.c.W.!.|.+XtXdXhXbXwX;XW.=Xc.Q.1X6.,X*.} '.F.| @.O.o.).Q.,XC.5.yX2.=.< (.v.y.kXcX",
"cX!.s s F B H d.L q.L.(.%XeXdXhXlXxXvXeXXXh.Q.q.Q.;X6.6X-X@.'.-X*...%.+.8.<X0X*.5.fX*.{ q OXp.p.zXcX",
"cX+XT.I ;.F M G P P U w.c.l.e.e.P 8.e.5.5./ u / ] 6.] 8.W.@.0.<XD.&.%. .] l.r...5.fXt.' c 3Xy.b.vX  ",
"cXcXcX XD y.;.j.K.@ 6 ~ { #.#.' 6 w X...#.~ ^ .. .r.r 8 e t w e ) o.+. ./ <X=X .5.fX*.a H./.>.:XcX  ",
"cX  cXaXB D u ,.>Xh 2 2 w t t ~ +.X.e ( W a #.%.%.V.h K.<Xb 0 H.K & 4 f e r ) $./ 2X@.9 oXk.u.kXcX  ",
"      vXU D s s /.J.1 ( ' ( +.%...%.+.7 * o.&.&.%.M.j ].J.% I.yXuXm U rX XL.U 8 r ~ 2 R &X>./.vX    ",
"      cX+XM V u 1.,Xm t _ _ { #.&.&.X.e ~ a ` #._ 8.j '.tXS E..X6XA ).OX6X7XiXb S T.A b F 3.jXcX    ",
"      cXbXH :.V i c..Xq ^ _ _ X.#.+.e ` &.o.a 7 7 7.j '.Y.; E.gXkXA ).E.OXL.4XL g.bX6Xv X g.cX      ",
"        cX$XB d i F `.R.4 ^ ` _ _ e ' ..%.&.o.8 t 4.l '.K X E.).>XA ).T.OXY.4XL f.5Xu @ O +XcX      ",
"          vXq.D F d :.;XJ.4 ^ _ e e X.$.#.%.^ ' &.Z.j '.L X E.!.>XA ].T.OXY.>XL g.tX+ X + +XcX      ",
"          cXlXG F V q :.:XR.5 7 w ( _ _ X.{ t _  .V.j ].L X E.!.#XG ).T.OXY.4XL f.zXT.> + +XcX      ",
"            cXrXN F i s F `. Xh < ' _ _ _ _ t t [ Z.j G 0 X E.!.>XG '.T.OXJ.4XL g.sX'.c + +XcX      ",
"              cX$XN :.p q -.v.4XR q 2 ^ ( _ ( 7 E 6.c.I x , N Z ].b ].T.oXY.4XL g.5X% + + +XcX      ",
"                cX5XN V D p p i.{.OXR u 6 3 W ~ 6 E ` ] 6.0.L k i # g.g.oXY.4XL g.5X@ O + +XcX      ",
"                  cXaXK D F F p V 3.`.:X!.Y c u = & 6 6 8 q P  X+XY k ; v.R 4XY g.tX@ O + +XcX      ",
"                    cXlXJ.M D F q M M 3.a./.&XOXXX}.).}..XoX;X2Xx.a.v.R m * E.G g.$X+ + + +XcX      ",
"                      cXcXtXU M F F d s q ;.p.x.u.3.3.k.<.,.M F u F -.k.h.H.z @ s.hXn + + +XcX      ",
"                          cXxX$Xq.B F s d >.m.m.:.* q D * D i M s F :.h.6XxXsXT z [.sXv O +XcX      ",
"                              cXvXaX(.R H F F -.D V V F V D F <.h.).aXxXcXcXcXcX+Xn J l + +XcX      ",
"                                  cXcXvXlXtX+X!.U.I.U.U.(.oXtXlXxXcXcX        cXcXkXY + + +XcX      ",
"                                          cXcXcXcXcXcXcXcXcXcX                  cXcXxXT.% +XcX      ",
"                                                                                    cXcX%XrXcX      ",
"                                                                                      cXcXcXcX      ",
"                                                                                        cXcXcX      ",
"                                                                                          cXcX      ",
"                                                                                                    "
};
