/* XPM */
static char *_fa2a69aa9ee4f44945931fdd9522280g8IdZWctOMnGN7Oc[] = {
/* columns rows colors chars-per-pixel */
"50 50 67 1 ",
"  c #E6A36F",
". c #E7AE75",
"X c #EBAD76",
"o c #EDAF78",
"O c #F1AD77",
"+ c #F1AE79",
"@ c #E6B276",
"# c #EBB177",
"$ c #E7B579",
"% c #ECB47A",
"& c #E6BB7C",
"* c #EDB97D",
"= c #ECBA7D",
"- c #EDBA7F",
"; c #E8BD7D",
": c #EABC7D",
"> c #EABE7C",
", c #E8BC7F",
"< c #EEBD7F",
"1 c #F0B077",
"2 c #F1B37B",
"3 c #F1B37C",
"4 c #F2B47D",
"5 c #F0B67C",
"6 c #F3B57E",
"7 c #F5B77F",
"8 c #F0BA7E",
"9 c #F1BB7F",
"0 c #F0BC7F",
"q c #ECC07E",
"w c #EEC17E",
"e c #E7BC80",
"r c #ECBA80",
"t c #EDBA80",
"y c #EDBB81",
"u c #EABD81",
"i c #EBBD81",
"p c #E9BE82",
"a c #EABF83",
"s c #EBBF83",
"d c #EEBF81",
"f c #EFBC82",
"g c #EDBF83",
"h c #EFBE83",
"j c #F1B980",
"k c #F0BA80",
"l c #F0BF81",
"z c #F5BE82",
"x c #F0BF84",
"c c #F4BD84",
"v c #F5BE85",
"b c #E8C182",
"n c #ECC181",
"m c #EFC182",
"M c #EDC383",
"N c #EBC084",
"B c #E9C284",
"V c #EFC185",
"C c #EEC886",
"Z c #EEC789",
"A c #EFC989",
"S c #F0C183",
"D c #F1C183",
"F c #F2C284",
"G c #F1C789",
"H c #F9C488",
"J c #F2C98A",
/* pixels */
"--<<>ww<dmbNNmNbdeu&u&-u%%%%@oo@@@o%jjyj%j%%%%o%oy",
"$-$$#%$####%%%oo%oooooXo%%o@%j%ooojo%oo@@y.%@$%ooo",
"<<<<wwwmddgdNDNxcxgvxxyduyyy%uyyy:yyyuyyyyuygy#=yy",
"<-$-2$$%$o$$%%yyy%&%$=e:ueeeuesuguebee&yryuyduedeu",
"8>>>m::e=<=l-dlDxj#yjyy:y%%%yy#yd=&#*--<rry-yd--=y",
"==%%775562$$-2%$&u&ds#%#%---yjjy2*-**---%%$$&%y$#-",
"2%#X$%%8---888--888jDy--%y--::y@-*-$$-<%j-8==:::%y",
"2###@&-ud:<=<d<-y8l8lv<<dDdd:DNg<ll88w00xxlDDmueus",
"$$$#$2#$2#1XX#O#@@$$$%22%2%5%%222%255-##+%#5+%%$j%",
"Mm,wwMDmDm<<,uwD**-$$%*$%#X#%%@##%$#@#%*%%##X##@%#",
"MMwmDDDDDDDMDmFDDD0<$<mbDJCDCmlCADHl0-0DwCJDDmCACm",
"-%2-**-%--:<:::<<<<<<<<<mdDDmDmDD0DDD<<05-DCbCmmml",
"00--<<<D<<umq,,DwwmmwDD0<<<<----$#-::emDDdm::w,:=u",
"DDDwDwwDDm<w:mmw00><00w<<<-dqm<<=>=:dw=<<:=&=wm,-d",
"-===<$$*<<,<e:<<www0w><0DmDDCDCqwm8<-&d<lzDdDDDDDz",
"<=$=-$$$<$$$$$$$$##%%$$$=$$-:$$:$---$$$@%$%%-<:>=$",
"<<00<8lw0www0DzwwwwwwwD00->#*2<*%%#@$-lD888y->$---",
"002q-8-$$22#%%%%#2#$%%#$$$##$202yyl88--$#$8l<<**%-",
"**=%$%$$%=wq%::-,<ww<>00000*>85q%:j---8lDjl-:-%2-%",
"=q$>><:<>wwwwwmDmm:D<>--025q%->$%%%%$----j8-58w>=-",
":D<w::uy$>$>&:yy,u,&u&--$>>%>>**yyxjy%&u:%y&&%>>>>",
"=0$$oX$+#1%#ooo$%%oXj2%%###%%%%%%%#%%y%%%y%o%%%%%#",
"O1.XO  OOOOOOOOOOOOOOOO+1XO11O11XO+XXXo++o+XooX+1#",
"22112.X%##2Ooooo+oXXXXoo##X1#X##XOXXXoo%ooo..oo$#X",
"---8:w=eee===:md%:%:y:yd>-*0::->-$--%yyyuym<-m:<*=",
"##$$5X##Xo.o%.o%X2.X.2##1#$%##2#2Xo%@%%$ooo%o$#%##",
"----4-y4jj-y=-#%-$$::%2222*22%216o%6%%j%-%522%#2%2",
"JJGGbBGCBZuZGGJJm-dCCmCCMFCMmbCwCudNCZuBCDwCCmMJCM",
"ooXXXo-$+-@@$$*-%%---=>---><wm<-d-jydy:<>>#::>-0<0",
"+oXoooXXXXXoX..X.###########$###2222oooX##.1#X#XX$",
"yyyyv---j%X--%-%#$$*$$2###$##X#X$  X.o$o$%1%.X#XX#",
"@%%%o%oOj%%2-252-**-<:<-<<,,,,,,uyd,yud=d<<:>><=**",
"--y5rrr%%.jooojo++OO++oXooooXooo#o+%ojoXXoooXoooX+",
"u%@%jurjuyuyuyejyrrryjjrjurjvjygygyyrrjrrryyjyjjly",
"r%@ooooooXXoXXooXXXXoXoXooXo+#ooo%joooojooXooooy%o",
"ruy@ouooju%yrerjyrrrjuyyyyyyjyuyeu%%rrjyjjyyyrru8<",
"rrvyy%@u&%-yrrjjy%%%%%@o%..ojo%%%.%.%.o.@@%%o%..%%",
".o$$%%jjo#o#ooooe@yuyyyyjyujjjjjjyyyyyrry#yyycjy5-",
"yy%=uyugNguwduuueeuey-%%joy%o4%+j%.#yjrr%-%%%%uo$2",
"&#$u%jo%%%4%%%@o#o.o@@%%#@%%%@%$o%%yuo.%$@%@@.%%$$",
"<<ydvvx8vyldddylzvjjjjy-yd--=:%yyy=y-8--%::<<-*>>2",
"--$@%%%$%%#$#y8juyy=uyyydD0>&=ubydcx-d->yydd<<<>*>",
"<-5yyd<<gd=y=d=<=ye:&syy---::=::uy@&%y-<dy-%%<*:>>",
"-24+j%%%4--##%$$----%%%j%#2--:--yu=ydy;*%%%%*$2>w%",
"=-$##%-8580<d80<mu:mm,:-yu===:-:%u@$$<<-;,*<>>>%-*",
"%%1X$-*8l-:0dy,-<wbwuqmwsBmbmwwuuyly5D8<;qwDw<wD0<",
"1XO#%2%%X.O#X%#$$#$5=$O#O222225522j--%$#222222-%2-",
"M<w0008lzll5%888555%#%%%22..O#2##%#.##%222#O####$$",
"MmmmmqMCCCMbqBCCMHl$%dmmCCCCNmBADDHlly8lDmAFMFFFHD",
":-:-,;&,&$qqbq&qe:,::=&:=dDDCBCACCDDlj-y--0DHFFDFD"
};
