/* XPM */
static char *_80b53dbd4734171eb20618d3804d261r6DhZeZDrUv8HBqE[] = {
/* columns rows colors chars-per-pixel */
"50 50 86 1 ",
"  c #EAB357",
". c #EDB55A",
"X c #EFB85E",
"o c #F0B45C",
"O c #E5A771",
"+ c #ECA772",
"@ c #E7A973",
"# c #ECAB75",
"$ c #EDAE78",
"% c #F0AB75",
"& c #F1AE7A",
"* c #E6B477",
"= c #EBB376",
"- c #E7B877",
"; c #E9BF73",
": c #E6B679",
"> c #ECB57B",
", c #E7B97B",
"< c #EDB97D",
"1 c #EEB97C",
"2 c #EEB87F",
"3 c #EBBC7D",
"4 c #E9BF7F",
"5 c #EEBC7D",
"6 c #F0B577",
"7 c #F1B678",
"8 c #F2B779",
"9 c #F0B27D",
"0 c #F1B37E",
"q c #F0B87A",
"w c #F3B87A",
"e c #F1BA7C",
"r c #F3BB7D",
"t c #F4BB7D",
"y c #F0BD7E",
"u c #F4BC7E",
"i c #E7C176",
"p c #EAC176",
"a c #ECC479",
"s c #EDC07E",
"d c #EEC27F",
"f c #EFC27F",
"g c #F0C67C",
"h c #F7C97B",
"j c #FAC97C",
"k c #0D338B",
"l c #12358C",
"z c #004295",
"x c #0058A0",
"c c #005DA9",
"v c #4D6CB6",
"b c #4F6DB9",
"n c #526BB6",
"m c #526AB8",
"M c #EBBB80",
"N c #EFB980",
"B c #EDBB80",
"V c #EFBB81",
"C c #E9BE80",
"Z c #EABF81",
"A c #EBBE82",
"S c #ECBC81",
"D c #EFBD82",
"F c #F0BC80",
"G c #F0BE81",
"H c #F0BE83",
"J c #F1BE83",
"K c #E7C582",
"L c #EAC080",
"P c #EDC180",
"I c #EEC581",
"U c #EEC184",
"Y c #EEC385",
"T c #EBCA86",
"R c #F0C182",
"E c #F3C186",
"W c #F1C784",
"Q c #F2C486",
"! c #F1C686",
"~ c #FDC780",
"^ c #FCCA80",
"/ c #F2C989",
"( c #F2DBB6",
") c #F2D9B9",
"_ c #A4AAC7",
"` c #A4ABCA",
/* pixels */
"=$=$$6$6>9966#=66>6$=8=::*-,,y<L4>-<<<eAGFGGV>VAGQ",
"<>>,>,>>e<<<<qe<8><q<<*<4,,,<APA5-111V<uVeVFV,<<e>",
"PLLs4L44ZLZPgPPPPPgPPPGQWGA<ARRGy5<e1<<>>,>>***>:,",
"IIPIIIWPIIWQAPZZUPPVPPyeuuu8ueuu6<=<<>>-=*=>>:>>,<",
"RR5<PgWgHgQQVM,MZZMMMM88ww86688q6q<<<q<==@-8><VFV<",
"---,<4>,>,<GMV,,,MN:,M<<qq===>q8><<e<<y<<*<eGGHHVV",
"<,=>,>>>>>N>VNeN>FNNNN,><--==--=<-5--yyZ-,s,<VVMVM",
"=9=9>e9=>>>>>N90>$>>>>>>=-=----<<,,,--,---,,-V:,>,",
"99N0>e&N$N$$$9F&9$=969>><*==;;@->>N,>,<<e=,=>9>$,N",
"%$&#$$$##$$+$&N&###$$$68=#=6#@#=#N$$$#<9===$99$&$&",
"OOOOOOOOOOOO@#$#@+@#####++=+$XO+++++#$&&&&&$&&&+%%",
"@$$$,@$$$$$O@$$##@@##$$@+##6$#+++N++@+%%&##%%%+@$$",
",N9><><wM$>=$$#$=$$=$>$&=$$$=$&=NN@+++F@$$+$##$@$%",
",,>,>--<N,<<><N>>>>FNNNNF<V:e><9MNNNNNNN>>>$$*>V>N",
"*-5;5-ZsZ4<GVV,,VeVVMHADVAMMMMAAMHJNNNNVMMNVMMMGVZ",
"*-54-;-54>4e<->>VAV<VVMAMZM,,5AAMVVNMMMMMVNZM,ZL,V",
"###$$@@$#$$%++++@%%+%%++%++++#+++###++@@$+@V@@@#  ",
"#$$$&&&&&&&%%#%#%%%%#$%%%%%&%$+&%#$#+F$$$+V+#@@+X ",
"AFDDGHQQQHW<<gZAVGGgs5PPAWVPDQHHGGGGNHHFHDNN,<<5ag",
"UQQQQ//////KKsKKKTKKKTTTTTTTTTT/TTTIZUUUUAZVKssssg",
"Aaaapaaggggaaii;iiPPapppa;aaiaaapaaaaa5QZaiaa;pppp",
"    ....X.XooooooXXXoXooooooXo...XXXoXXXXXXX......",
"hhhhjhhjjjj^j~jj^^^^~~~jjjjjjjjj^^^^^^W~^^j^jhhjjj",
"((((((((((()(((()))))))(()((((((((((())))))(((((((",
"````````________```````_______`````````````````_``",
"nnnnnnnnnnnnnnvvbbbbbbvnvvvvvvvvmmmmmmmmmmmmnnnnnn",
"llllllzllllzzlllzklkkkllkkkkkkkkkkkkkkkklkkklkkkll",
"zzzzzzzzzzzzzzlzzzzzzzzzzzzzzzzzzzzkzzzzzzzzzkzzzz",
"ccxcxxxcccxcxcxxcccxxccxccxxccxxccccccccccccccxccx",
"xxxxxxxxxxxxxxxxxxxxxxxxxxxxxxxxxxxxxcxxccxxxxxxxx",
"xxxxxxxxxxxxxxxxxxxxxxxxxxxxxxcxxxxxxxxxxxxxxxxxxx",
"xxxxxxxxxxxxxxxxxxxxxxxxxxxxxxxxxxxxxxxxxxxxxxxxxx",
"xxxxxxxxxxxxxxxxxxxxxxxxxxxxxxxxxxxxxxxxxxxxxxxxxx",
"xxxxxxxxxxxxxxxxxxxxxxxxxxxxxzxxxxxxxxxxxxxzxxxxxx",
"xxxxxxxxxxxxxxxxxxxxxxxxxxxxxxxxxxxxxxxxxxxxxxxxxx",
"xxxxxxxxxxxxxxxxxzxxxxxxxxxxxxxxxxxxxxxxxxxxxxxxxx",
"xxxxxxxxxxxxxxxxxxxxxxxxxxxxxxxxxxxxxxxxxxxxxxxxxx",
"xxxxxxxxxxxxxxxxxxxxxxxxxxxxxxxxxxxxxxxxxxxxxxxxxx",
"xxxxxxxxxxxxxxxxxxxxxxxxxxxxxxxxxxxxxxxxxxxxxxxxxx",
"xxxxxxxxxxxxxxxxxxxxxxxxxxxxxxxxxxxxxxxxxxxxxxxxxx",
"xxxxxxxxxxxxxxxxxxxxxxxxxxxxxxxxxxxxxxxxxxxxxxxxxx",
"xxxxxxxxxxxxxxxxxxxxxxxxxxxxxxxxxxxxxxxxxxxxxxxxxx",
"xxxxxxxxxxxxxxxxxxxxxxxxxxxxxxxxxxxxxxxxxxxxxxxxxx",
"xxxxxxxxxxxxxxxxxxxxxxxxzxxxxxxxxxxxxxxxxxxxxxxxxx",
"xxxxxxxxzxxxxxxxxxxxxxxxxxxxxxxxxxxxxxxxxxxxxxxxxx",
"xxxxxxxxxxxxxxxxxxxxxxxxxxxxxxxxxxxxxxxxxxxxxxxxxx",
"xxxxxxxxxxxxxxxxxxxxxxxxxxxxxxxxxxxxxxxxxxxxxxxzxx",
"xxxxxxxxxxxxxxxxxxxxxxxxxxxxxxxxxxxxxxxxxxxxxxxxxx",
"xxxxxxxxxxxxxxxxxxxxxxxxxxxxxxxxxxxxxxxxxxzxxxxxxx",
"xxxxxxxxxxxxzxxxxxxxxxxxxxxxxxxxxxxxxxxxxxxxxxxxxx"
};
